<mxfile host="app.diagrams.net" agent="Mozilla/5.0 (Windows NT 10.0; Win64; x64) AppleWebKit/537.36 (KHTML, like Gecko) Chrome/135.0.0.0 Safari/537.36 Edg/135.0.0.0" version="26.2.12">
  <diagram name="Page-1" id="tusjF6pnQ86mpm2NOfYT">
    <mxGraphModel dx="1191" dy="1502" grid="0" gridSize="10" guides="1" tooltips="1" connect="1" arrows="1" fold="1" page="1" pageScale="1" pageWidth="1169" pageHeight="1654" background="none" math="0" shadow="0">
      <root>
        <mxCell id="0" />
        <mxCell id="1" parent="0" />
        <mxCell id="iz2M1keF_638vjoWOcNo-36" value="&lt;b&gt;&lt;font style=&quot;font-size: 24px;&quot;&gt;Service Notifications&lt;/font&gt;&lt;/b&gt;&lt;div&gt;&lt;br&gt;&lt;/div&gt;&lt;div&gt;&lt;b&gt;&lt;font style=&quot;font-size: 18px;&quot;&gt;&lt;br&gt;&lt;/font&gt;&lt;/b&gt;&lt;/div&gt;&lt;div&gt;&lt;b&gt;&lt;font style=&quot;font-size: 18px;&quot;&gt;&lt;br&gt;&lt;/font&gt;&lt;/b&gt;&lt;/div&gt;&lt;div&gt;&lt;b&gt;&lt;font style=&quot;font-size: 18px;&quot;&gt;&lt;br&gt;&lt;/font&gt;&lt;/b&gt;&lt;/div&gt;&lt;div&gt;&lt;b&gt;&lt;font style=&quot;font-size: 18px;&quot;&gt;&lt;br&gt;&lt;/font&gt;&lt;/b&gt;&lt;/div&gt;&lt;div&gt;&lt;b&gt;&lt;font style=&quot;font-size: 18px;&quot;&gt;&lt;br&gt;&lt;/font&gt;&lt;/b&gt;&lt;/div&gt;&lt;div&gt;&lt;b&gt;&lt;font style=&quot;font-size: 18px;&quot;&gt;&lt;br&gt;&lt;/font&gt;&lt;/b&gt;&lt;/div&gt;&lt;div&gt;&lt;br&gt;&lt;/div&gt;" style="rounded=1;whiteSpace=wrap;html=1;hachureGap=4;fontFamily=Architects Daughter;fontSource=https%3A%2F%2Ffonts.googleapis.com%2Fcss%3Ffamily%3DArchitects%2BDaughter;labelBackgroundColor=none;sketch=1;curveFitting=1;jiggle=2;" vertex="1" parent="1">
          <mxGeometry x="459.5" y="883.5" width="250" height="250" as="geometry" />
        </mxCell>
        <mxCell id="iz2M1keF_638vjoWOcNo-2" value="&lt;font style=&quot;font-size: 18px;&quot;&gt;Broker de messages (RabbitMQ)&lt;/font&gt;" style="rhombus;whiteSpace=wrap;html=1;hachureGap=4;fontFamily=Architects Daughter;fontSource=https%3A%2F%2Ffonts.googleapis.com%2Fcss%3Ffamily%3DArchitects%2BDaughter;labelBackgroundColor=none;sketch=1;curveFitting=1;jiggle=2;" vertex="1" parent="1">
          <mxGeometry x="459.5" y="537.5" width="227" height="256" as="geometry" />
        </mxCell>
        <mxCell id="iz2M1keF_638vjoWOcNo-9" value="&lt;font style=&quot;font-size: 24px;&quot;&gt;API Gateway&lt;/font&gt;" style="rounded=1;whiteSpace=wrap;html=1;hachureGap=4;fontFamily=Architects Daughter;fontSource=https%3A%2F%2Ffonts.googleapis.com%2Fcss%3Ffamily%3DArchitects%2BDaughter;labelBackgroundColor=none;sketch=1;curveFitting=1;jiggle=2;" vertex="1" parent="1">
          <mxGeometry x="492.5" y="143.5" width="162" height="70" as="geometry" />
        </mxCell>
        <mxCell id="iz2M1keF_638vjoWOcNo-10" value="&lt;b&gt;&lt;font style=&quot;font-size: 24px;&quot;&gt;Service Utilisateurs&lt;/font&gt;&lt;/b&gt;&lt;div&gt;&lt;b&gt;&lt;font style=&quot;font-size: 18px;&quot;&gt;&lt;br&gt;&lt;/font&gt;&lt;/b&gt;&lt;/div&gt;&lt;div&gt;&lt;b&gt;&lt;font style=&quot;font-size: 18px;&quot;&gt;&lt;br&gt;&lt;/font&gt;&lt;/b&gt;&lt;/div&gt;&lt;div&gt;&lt;b&gt;&lt;font style=&quot;font-size: 18px;&quot;&gt;&lt;br&gt;&lt;/font&gt;&lt;/b&gt;&lt;/div&gt;&lt;div&gt;&lt;b&gt;&lt;font style=&quot;font-size: 18px;&quot;&gt;&lt;br&gt;&lt;/font&gt;&lt;/b&gt;&lt;/div&gt;&lt;div&gt;&lt;b&gt;&lt;font style=&quot;font-size: 18px;&quot;&gt;&lt;br&gt;&lt;/font&gt;&lt;/b&gt;&lt;/div&gt;&lt;div&gt;&lt;b&gt;&lt;font style=&quot;font-size: 18px;&quot;&gt;&lt;br&gt;&lt;/font&gt;&lt;/b&gt;&lt;/div&gt;&lt;div&gt;&lt;b&gt;&lt;font style=&quot;font-size: 18px;&quot;&gt;&lt;br&gt;&lt;/font&gt;&lt;/b&gt;&lt;/div&gt;&lt;div&gt;&lt;b&gt;&lt;font style=&quot;font-size: 18px;&quot;&gt;&lt;br&gt;&lt;/font&gt;&lt;/b&gt;&lt;/div&gt;&lt;div&gt;&lt;b&gt;&lt;font style=&quot;font-size: 18px;&quot;&gt;&lt;br&gt;&lt;/font&gt;&lt;/b&gt;&lt;/div&gt;&lt;div&gt;&lt;b&gt;&lt;font style=&quot;font-size: 18px;&quot;&gt;&lt;br&gt;&lt;/font&gt;&lt;/b&gt;&lt;/div&gt;&lt;div&gt;&lt;br&gt;&lt;/div&gt;" style="rounded=1;whiteSpace=wrap;html=1;hachureGap=4;fontFamily=Architects Daughter;fontSource=https%3A%2F%2Ffonts.googleapis.com%2Fcss%3Ffamily%3DArchitects%2BDaughter;labelBackgroundColor=none;sketch=1;curveFitting=1;jiggle=2;" vertex="1" parent="1">
          <mxGeometry x="129.5" y="293.5" width="250" height="340" as="geometry" />
        </mxCell>
        <mxCell id="iz2M1keF_638vjoWOcNo-12" value="PostgreSQL&lt;div&gt;Utilisateurs&lt;/div&gt;" style="shape=cylinder3;whiteSpace=wrap;html=1;boundedLbl=1;backgroundOutline=1;size=15;labelBackgroundColor=none;sketch=1;curveFitting=1;jiggle=2;" vertex="1" parent="1">
          <mxGeometry x="129.5" y="663.5" width="70" height="130" as="geometry" />
        </mxCell>
        <mxCell id="iz2M1keF_638vjoWOcNo-15" value="" style="endArrow=classic;html=1;rounded=0;entryX=0.5;entryY=0;entryDx=0;entryDy=0;labelBackgroundColor=none;fontColor=default;sketch=1;curveFitting=1;jiggle=2;" edge="1" parent="1" target="iz2M1keF_638vjoWOcNo-10">
          <mxGeometry width="50" height="50" relative="1" as="geometry">
            <mxPoint x="889.5" y="243.5" as="sourcePoint" />
            <mxPoint x="319.5" y="293.5" as="targetPoint" />
            <Array as="points">
              <mxPoint x="254.5" y="243.5" />
            </Array>
          </mxGeometry>
        </mxCell>
        <mxCell id="iz2M1keF_638vjoWOcNo-16" value="" style="endArrow=none;html=1;rounded=0;entryX=0.5;entryY=1;entryDx=0;entryDy=0;labelBackgroundColor=none;fontColor=default;sketch=1;curveFitting=1;jiggle=2;" edge="1" parent="1" target="iz2M1keF_638vjoWOcNo-9">
          <mxGeometry width="50" height="50" relative="1" as="geometry">
            <mxPoint x="573.5" y="243.5" as="sourcePoint" />
            <mxPoint x="599.5" y="533.5" as="targetPoint" />
          </mxGeometry>
        </mxCell>
        <mxCell id="iz2M1keF_638vjoWOcNo-17" value="" style="endArrow=classic;html=1;rounded=0;entryX=0.5;entryY=0;entryDx=0;entryDy=0;labelBackgroundColor=none;fontColor=default;sketch=1;curveFitting=1;jiggle=2;" edge="1" parent="1">
          <mxGeometry width="50" height="50" relative="1" as="geometry">
            <mxPoint x="889.5" y="243.5" as="sourcePoint" />
            <mxPoint x="889.5" y="293.5" as="targetPoint" />
          </mxGeometry>
        </mxCell>
        <mxCell id="iz2M1keF_638vjoWOcNo-18" value="&lt;p data-pm-slice=&quot;1 1 []&quot;&gt;&lt;font style=&quot;font-size: 12px; color: light-dark(rgb(224, 122, 95), rgb(230, 230, 230));&quot;&gt;&lt;i style=&quot;&quot;&gt;Envoi de requêtes vers différents services pour inscription, connexion, création de commande, etc.&lt;/i&gt;&lt;/font&gt;&lt;/p&gt;" style="text;html=1;align=center;verticalAlign=middle;whiteSpace=wrap;rounded=0;labelBackgroundColor=none;sketch=1;curveFitting=1;jiggle=2;" vertex="1" parent="1">
          <mxGeometry x="669.5" y="153.5" width="280" height="50" as="geometry" />
        </mxCell>
        <mxCell id="iz2M1keF_638vjoWOcNo-19" value="&lt;p data-pm-slice=&quot;1 1 []&quot;&gt;&lt;/p&gt;&lt;div style=&quot;&quot;&gt;&lt;span style=&quot;background-color: transparent; color: light-dark(rgb(0, 0, 0), rgb(255, 255, 255));&quot;&gt;&lt;u&gt;&lt;font style=&quot;font-size: 18px;&quot;&gt;Endpoints REST :&lt;/font&gt;&lt;/u&gt;&lt;/span&gt;&lt;/div&gt;&lt;font style=&quot;font-size: 12px;&quot;&gt;&lt;font style=&quot;&quot;&gt;&lt;div style=&quot;&quot;&gt;&lt;span style=&quot;background-color: transparent; color: light-dark(rgb(0, 0, 0), rgb(255, 255, 255));&quot;&gt;- POST /inscription&lt;/span&gt;&lt;/div&gt;&lt;/font&gt;&lt;span style=&quot;background-color: transparent; color: light-dark(rgb(0, 0, 0), rgb(255, 255, 255));&quot;&gt;- POST /login&lt;br&gt;&lt;/span&gt;&lt;span style=&quot;background-color: transparent; color: light-dark(rgb(0, 0, 0), rgb(255, 255, 255));&quot;&gt;- GET /profil&lt;br&gt;&lt;/span&gt;&lt;span style=&quot;background-color: transparent; color: light-dark(rgb(0, 0, 0), rgb(255, 255, 255));&quot;&gt;- PUT /profil&lt;/span&gt;&lt;/font&gt;&lt;p&gt;&lt;/p&gt;&lt;p&gt;&lt;/p&gt;&lt;p&gt;&lt;font style=&quot;&quot;&gt;&lt;u style=&quot;&quot;&gt;&lt;font style=&quot;font-size: 18px;&quot;&gt;Événements publiés :&lt;/font&gt;&lt;br&gt;&lt;/u&gt;&lt;/font&gt;&lt;font style=&quot;font-size: 12px;&quot;&gt;&lt;span style=&quot;background-color: transparent; color: light-dark(rgb(0, 0, 0), rgb(255, 255, 255));&quot;&gt;- Après inscription, publie l&#39;événement &quot;UtilisateurInscrit&quot;.&lt;br&gt;&lt;/span&gt;&lt;span style=&quot;background-color: transparent; color: light-dark(rgb(0, 0, 0), rgb(255, 255, 255));&quot;&gt;- Lors d&#39;une mise à jour de profil, publie &quot;ProfilMisAJour&quot;.&lt;/span&gt;&lt;/font&gt;&lt;/p&gt;" style="text;html=1;align=left;verticalAlign=middle;whiteSpace=wrap;rounded=0;labelBackgroundColor=none;sketch=1;curveFitting=1;jiggle=2;" vertex="1" parent="1">
          <mxGeometry x="144.5" y="378.5" width="225" height="245" as="geometry" />
        </mxCell>
        <mxCell id="iz2M1keF_638vjoWOcNo-20" value="PostgreSQL&lt;div&gt;Commandes&lt;/div&gt;" style="shape=cylinder3;whiteSpace=wrap;html=1;boundedLbl=1;backgroundOutline=1;size=15;labelBackgroundColor=none;sketch=1;curveFitting=1;jiggle=2;" vertex="1" parent="1">
          <mxGeometry x="947" y="653.5" width="70" height="130" as="geometry" />
        </mxCell>
        <mxCell id="iz2M1keF_638vjoWOcNo-24" value="" style="curved=1;endArrow=classic;html=1;rounded=0;exitX=-0.001;exitY=0.783;exitDx=0;exitDy=0;exitPerimeter=0;entryX=0;entryY=0;entryDx=0;entryDy=15;entryPerimeter=0;labelBackgroundColor=none;fontColor=default;sketch=1;curveFitting=1;jiggle=2;" edge="1" parent="1" source="iz2M1keF_638vjoWOcNo-10" target="iz2M1keF_638vjoWOcNo-12">
          <mxGeometry width="50" height="50" relative="1" as="geometry">
            <mxPoint x="207.5" y="553" as="sourcePoint" />
            <mxPoint x="207.5" y="660.5" as="targetPoint" />
            <Array as="points">
              <mxPoint x="92" y="574" />
              <mxPoint x="84" y="653" />
            </Array>
          </mxGeometry>
        </mxCell>
        <mxCell id="iz2M1keF_638vjoWOcNo-28" value="" style="curved=1;endArrow=classic;html=1;rounded=0;exitX=1;exitY=0.75;exitDx=0;exitDy=0;entryX=1;entryY=0;entryDx=0;entryDy=15;entryPerimeter=0;labelBackgroundColor=none;fontColor=default;sketch=1;curveFitting=1;jiggle=2;" edge="1" parent="1" source="iz2M1keF_638vjoWOcNo-34" target="iz2M1keF_638vjoWOcNo-20">
          <mxGeometry width="50" height="50" relative="1" as="geometry">
            <mxPoint x="1097.5" y="572.9999999999998" as="sourcePoint" />
            <mxPoint x="1117.5" y="690.5" as="targetPoint" />
            <Array as="points">
              <mxPoint x="1167.5" y="610.5" />
            </Array>
          </mxGeometry>
        </mxCell>
        <mxCell id="iz2M1keF_638vjoWOcNo-32" value="" style="endArrow=classic;dashed=1;html=1;rounded=0;exitX=0;exitY=0.5;exitDx=0;exitDy=0;entryX=1;entryY=0;entryDx=0;entryDy=0;labelBackgroundColor=none;fontColor=default;sketch=1;curveFitting=1;jiggle=2;fillColor=#60a917;strokeColor=#2D7600;" edge="1" parent="1" target="iz2M1keF_638vjoWOcNo-2">
          <mxGeometry width="50" height="50" relative="1" as="geometry">
            <mxPoint x="769.5" y="463.5" as="sourcePoint" />
            <mxPoint x="859.5" y="553.5" as="targetPoint" />
            <Array as="points">
              <mxPoint x="629.5" y="463.5" />
            </Array>
          </mxGeometry>
        </mxCell>
        <mxCell id="iz2M1keF_638vjoWOcNo-33" value="" style="endArrow=classic;dashed=1;html=1;dashPattern=1 3;strokeWidth=2;rounded=0;exitX=0.5;exitY=1;exitDx=0;exitDy=0;entryX=0.452;entryY=0.009;entryDx=0;entryDy=0;entryPerimeter=0;labelBackgroundColor=none;fontColor=default;sketch=1;curveFitting=1;jiggle=2;fillColor=#0050ef;strokeColor=light-dark(#B2CBFF,#0000CC);" edge="1" parent="1" source="iz2M1keF_638vjoWOcNo-2" target="iz2M1keF_638vjoWOcNo-36">
          <mxGeometry width="50" height="50" relative="1" as="geometry">
            <mxPoint x="571.5" y="793.5" as="sourcePoint" />
            <mxPoint x="571.5" y="909.5" as="targetPoint" />
          </mxGeometry>
        </mxCell>
        <mxCell id="iz2M1keF_638vjoWOcNo-34" value="&lt;b&gt;&lt;font style=&quot;font-size: 24px;&quot;&gt;Service Commandes&lt;/font&gt;&lt;/b&gt;&lt;div&gt;&lt;b&gt;&lt;font style=&quot;font-size: 18px;&quot;&gt;&lt;br&gt;&lt;/font&gt;&lt;/b&gt;&lt;/div&gt;&lt;div&gt;&lt;b&gt;&lt;font style=&quot;font-size: 18px;&quot;&gt;&lt;br&gt;&lt;/font&gt;&lt;/b&gt;&lt;/div&gt;&lt;div&gt;&lt;b&gt;&lt;font style=&quot;font-size: 18px;&quot;&gt;&lt;br&gt;&lt;/font&gt;&lt;/b&gt;&lt;/div&gt;&lt;div&gt;&lt;b&gt;&lt;font style=&quot;font-size: 18px;&quot;&gt;&lt;br&gt;&lt;/font&gt;&lt;/b&gt;&lt;/div&gt;&lt;div&gt;&lt;b&gt;&lt;font style=&quot;font-size: 18px;&quot;&gt;&lt;br&gt;&lt;/font&gt;&lt;/b&gt;&lt;/div&gt;&lt;div&gt;&lt;b&gt;&lt;font style=&quot;font-size: 18px;&quot;&gt;&lt;br&gt;&lt;/font&gt;&lt;/b&gt;&lt;/div&gt;&lt;div&gt;&lt;b&gt;&lt;font style=&quot;font-size: 18px;&quot;&gt;&lt;br&gt;&lt;/font&gt;&lt;/b&gt;&lt;/div&gt;&lt;div&gt;&lt;b&gt;&lt;font style=&quot;font-size: 18px;&quot;&gt;&lt;br&gt;&lt;/font&gt;&lt;/b&gt;&lt;/div&gt;&lt;div&gt;&lt;b&gt;&lt;font style=&quot;font-size: 18px;&quot;&gt;&lt;br&gt;&lt;/font&gt;&lt;/b&gt;&lt;/div&gt;&lt;div&gt;&lt;b&gt;&lt;font style=&quot;font-size: 18px;&quot;&gt;&lt;br&gt;&lt;/font&gt;&lt;/b&gt;&lt;/div&gt;&lt;div&gt;&lt;br&gt;&lt;/div&gt;" style="rounded=1;whiteSpace=wrap;html=1;hachureGap=4;fontFamily=Architects Daughter;fontSource=https%3A%2F%2Ffonts.googleapis.com%2Fcss%3Ffamily%3DArchitects%2BDaughter;labelBackgroundColor=none;sketch=1;curveFitting=1;jiggle=2;" vertex="1" parent="1">
          <mxGeometry x="769.5" y="293.5" width="250" height="340" as="geometry" />
        </mxCell>
        <mxCell id="iz2M1keF_638vjoWOcNo-25" value="&lt;p data-pm-slice=&quot;1 1 []&quot;&gt;&lt;/p&gt;&lt;div style=&quot;&quot;&gt;&lt;span style=&quot;background-color: transparent; color: light-dark(rgb(0, 0, 0), rgb(255, 255, 255));&quot;&gt;&lt;u&gt;&lt;font style=&quot;font-size: 18px;&quot;&gt;Endpoints REST :&lt;/font&gt;&lt;/u&gt;&lt;/span&gt;&lt;/div&gt;&lt;font style=&quot;font-size: 12px;&quot;&gt;&lt;font style=&quot;&quot;&gt;&lt;div style=&quot;&quot;&gt;&lt;span style=&quot;background-color: transparent; color: light-dark(rgb(0, 0, 0), rgb(255, 255, 255));&quot;&gt;- POST &lt;/span&gt;&lt;font style=&quot;&quot;&gt;&lt;span style=&quot;background-color: transparent; color: light-dark(rgb(0, 0, 0), rgb(255, 255, 255));&quot;&gt;/commandes&lt;/span&gt;&lt;/font&gt;&lt;/div&gt;&lt;/font&gt;&lt;span style=&quot;background-color: transparent; color: light-dark(rgb(0, 0, 0), rgb(255, 255, 255));&quot;&gt;- GET /&lt;/span&gt;&lt;span style=&quot;background-color: transparent; color: light-dark(rgb(0, 0, 0), rgb(255, 255, 255));&quot;&gt;commandes/{id}&lt;/span&gt;&lt;span style=&quot;background-color: transparent; color: light-dark(rgb(0, 0, 0), rgb(255, 255, 255));&quot;&gt;&lt;br&gt;&lt;/span&gt;&lt;span style=&quot;background-color: transparent; color: light-dark(rgb(0, 0, 0), rgb(255, 255, 255));&quot;&gt;- PUT /&lt;/span&gt;&lt;span style=&quot;background-color: transparent; color: light-dark(rgb(0, 0, 0), rgb(255, 255, 255));&quot;&gt;commandes/{id}&lt;br&gt;&lt;/span&gt;&lt;span style=&quot;color: light-dark(rgb(0, 0, 0), rgb(255, 255, 255)); background-color: transparent;&quot;&gt;- POST /&lt;/span&gt;&lt;span style=&quot;color: light-dark(rgb(0, 0, 0), rgb(255, 255, 255)); background-color: transparent;&quot;&gt;commandes/{id}&lt;/span&gt;&lt;/font&gt;&lt;span style=&quot;background-color: transparent; color: light-dark(rgb(0, 0, 0), rgb(255, 255, 255));&quot;&gt;&lt;br&gt;&lt;/span&gt;&lt;p&gt;&lt;/p&gt;&lt;p&gt;&lt;/p&gt;&lt;p&gt;&lt;font style=&quot;&quot;&gt;&lt;u style=&quot;&quot;&gt;&lt;font style=&quot;font-size: 18px;&quot;&gt;Événements publiés :&lt;/font&gt;&lt;br&gt;&lt;/u&gt;&lt;/font&gt;&lt;font style=&quot;font-size: 12px;&quot;&gt;&lt;span style=&quot;background-color: transparent; color: light-dark(rgb(0, 0, 0), rgb(255, 255, 255));&quot;&gt;- &quot;CommandeCréée&quot; lorsque une commande est&amp;nbsp;passée.&lt;br&gt;&lt;/span&gt;&lt;span style=&quot;background-color: transparent; color: light-dark(rgb(0, 0, 0), rgb(255, 255, 255));&quot;&gt;- &quot;CommandeModifiée&quot; lors d&#39;une modification.&lt;br&gt;&lt;/span&gt;&lt;span style=&quot;background-color: transparent; color: light-dark(rgb(0, 0, 0), rgb(255, 255, 255));&quot;&gt;- &quot;CommandeAnnulée&quot; en cas d&#39;annulation.&amp;nbsp;&amp;nbsp;&lt;/span&gt;&lt;/font&gt;&lt;/p&gt;" style="text;html=1;align=left;verticalAlign=middle;whiteSpace=wrap;rounded=0;labelBackgroundColor=none;sketch=1;curveFitting=1;jiggle=2;" vertex="1" parent="1">
          <mxGeometry x="784.5" y="378.5" width="220" height="245" as="geometry" />
        </mxCell>
        <mxCell id="iz2M1keF_638vjoWOcNo-35" value="&lt;p data-pm-slice=&quot;1 1 []&quot;&gt;&lt;/p&gt;&lt;div style=&quot;&quot;&gt;&lt;u style=&quot;background-color: transparent; color: light-dark(rgb(0, 0, 0), rgb(255, 255, 255));&quot;&gt;&lt;font style=&quot;font-size: 18px;&quot;&gt;Événements consommés :&lt;/font&gt;&lt;/u&gt;&lt;/div&gt;&lt;p&gt;&lt;font style=&quot;&quot;&gt;&lt;font style=&quot;&quot;&gt;&lt;span style=&quot;background-color: transparent; color: light-dark(rgb(0, 0, 0), rgb(255, 255, 255));&quot;&gt;&lt;font style=&quot;&quot;&gt;&lt;font style=&quot;font-size: 12px;&quot;&gt;- &quot;CommandeCréée&quot; lorsque une commande&amp;nbsp; &amp;nbsp; &amp;nbsp; &amp;nbsp; &amp;nbsp;est&amp;nbsp;passée.&lt;/font&gt;&lt;br&gt;&lt;/font&gt;&lt;/span&gt;&lt;span style=&quot;background-color: transparent; color: light-dark(rgb(0, 0, 0), rgb(255, 255, 255));&quot;&gt;&lt;font style=&quot;font-size: 12px;&quot;&gt;- &quot;CommandeModifiée&quot; lors d&#39;une modification.&lt;/font&gt;&lt;br&gt;&lt;/span&gt;&lt;/font&gt;&lt;span style=&quot;background-color: transparent; color: light-dark(rgb(0, 0, 0), rgb(255, 255, 255));&quot;&gt;&lt;font style=&quot;font-size: 12px;&quot;&gt;- &quot;CommandeAnnulée&quot; en cas d&#39;annulation.&amp;nbsp;&amp;nbsp;&lt;/font&gt;&lt;/span&gt;&lt;/font&gt;&lt;/p&gt;" style="text;html=1;align=left;verticalAlign=middle;whiteSpace=wrap;rounded=0;labelBackgroundColor=none;sketch=1;curveFitting=1;jiggle=2;" vertex="1" parent="1">
          <mxGeometry x="474.5" y="953.5" width="220" height="170" as="geometry" />
        </mxCell>
        <mxCell id="iz2M1keF_638vjoWOcNo-37" value="PostgreSQL&lt;div&gt;Notifications&lt;/div&gt;" style="shape=cylinder3;whiteSpace=wrap;html=1;boundedLbl=1;backgroundOutline=1;size=15;labelBackgroundColor=none;sketch=1;curveFitting=1;jiggle=2;" vertex="1" parent="1">
          <mxGeometry x="539.5" y="1173.5" width="70" height="130" as="geometry" />
        </mxCell>
        <mxCell id="iz2M1keF_638vjoWOcNo-38" value="" style="curved=1;endArrow=classic;html=1;rounded=0;entryX=1;entryY=0;entryDx=0;entryDy=15;entryPerimeter=0;labelBackgroundColor=none;fontColor=default;sketch=1;curveFitting=1;jiggle=2;" edge="1" target="iz2M1keF_638vjoWOcNo-37" parent="1">
          <mxGeometry width="50" height="50" relative="1" as="geometry">
            <mxPoint x="679.5" y="1133.5" as="sourcePoint" />
            <mxPoint x="629.5" y="1213.5" as="targetPoint" />
            <Array as="points">
              <mxPoint x="679.5" y="1133.5" />
              <mxPoint x="699.5" y="1178.5" />
            </Array>
          </mxGeometry>
        </mxCell>
        <mxCell id="iz2M1keF_638vjoWOcNo-39" value="" style="endArrow=classic;dashed=1;html=1;rounded=0;exitX=1;exitY=0.5;exitDx=0;exitDy=0;entryX=0;entryY=0;entryDx=0;entryDy=0;labelBackgroundColor=none;fontColor=default;sketch=1;curveFitting=1;jiggle=2;fillColor=#60a917;strokeColor=#2D7600;" edge="1" parent="1" source="iz2M1keF_638vjoWOcNo-10" target="iz2M1keF_638vjoWOcNo-2">
          <mxGeometry width="50" height="50" relative="1" as="geometry">
            <mxPoint x="669.5" y="463.5" as="sourcePoint" />
            <mxPoint x="529.5" y="601.5" as="targetPoint" />
            <Array as="points">
              <mxPoint x="516.5" y="463.5" />
            </Array>
          </mxGeometry>
        </mxCell>
        <mxCell id="iz2M1keF_638vjoWOcNo-40" value="&lt;font style=&quot;font-size: 18px; color: light-dark(rgb(45, 118, 0), rgb(45, 118, 0));&quot;&gt;Publication d&#39;évènements&lt;/font&gt;" style="text;html=1;align=center;verticalAlign=middle;whiteSpace=wrap;rounded=0;labelBackgroundColor=none;fillColor=none;strokeColor=none;sketch=1;curveFitting=1;jiggle=2;" vertex="1" parent="1">
          <mxGeometry x="515.5" y="383.5" width="116" height="100" as="geometry" />
        </mxCell>
        <mxCell id="iz2M1keF_638vjoWOcNo-42" value="&lt;font style=&quot;font-size: 18px; color: light-dark(rgb(0, 29, 188), rgb(0, 29, 188));&quot;&gt;Consommation&lt;/font&gt;&lt;div&gt;&lt;font style=&quot;font-size: 18px; color: light-dark(rgb(0, 29, 188), rgb(0, 29, 188));&quot;&gt;d&#39;évènements&lt;/font&gt;&lt;/div&gt;" style="text;html=1;align=center;verticalAlign=middle;whiteSpace=wrap;rounded=0;labelBackgroundColor=none;sketch=1;curveFitting=1;jiggle=2;" vertex="1" parent="1">
          <mxGeometry x="593.5" y="783.5" width="146" height="100" as="geometry" />
        </mxCell>
      </root>
    </mxGraphModel>
  </diagram>
</mxfile>
